<svg width="16" height="16" viewBox="0 0 16 16" fill="currentColor" xmlns="http://www.w3.org/2000/svg">
<path d="M4.03105 9.97153L4.1141 9.61865L3.84036 9.38099L0.869757 6.80201C0.5467 6.52154 0.507551 6.0239 0.786196 5.69422C0.918338 5.53788 1.10444 5.44267 1.30294 5.42654L5.20191 5.10975L5.56868 5.07995L5.70839 4.73951L7.21052 1.07922C7.37507 0.678252 7.82186 0.497833 8.20465 0.659192C8.3896 0.737154 8.53905 0.88725 8.61783 1.07922L10.12 4.73951L10.2597 5.07995L10.6264 5.10975L14.5254 5.42654C14.9387 5.46013 15.2605 5.83061 15.2258 6.26887C15.2094 6.47721 15.1123 6.66857 14.9586 6.80201L11.988 9.38099L11.7142 9.61865L11.7973 9.97153L12.7049 13.8276C12.8055 14.2552 12.5433 14.6736 12.1382 14.7715C11.9442 14.8184 11.7395 14.7858 11.568 14.6797L8.22999 12.6133L7.91418 12.4178L7.59837 12.6133L4.26031 14.6797C3.9049 14.8997 3.43778 14.7893 3.21598 14.4212C3.10936 14.2443 3.07569 14.0307 3.12349 13.8276L4.03105 9.97153Z" stroke="currentColor" stroke-width="1.2"/>
</svg>
